<?xml version="1.0" standalone="no"?><svg xmlns="http://www.w3.org/2000/svg" viewBox="0 0 1440 320"><path fill="#F6BEA2" fill-opacity="1" d="M0,224L40,240C80,256,160,288,240,288C320,288,400,256,480,234.7C560,213,640,203,720,202.7C800,203,880,213,960,234.7C1040,256,1120,288,1200,288C1280,288,1360,256,1400,240L1440,224L1440,320L1400,320C1360,320,1280,320,1200,320C1120,320,1040,320,960,320C880,320,800,320,720,320C640,320,560,320,480,320C400,320,320,320,240,320C160,320,80,320,40,320L0,320Z"></path></svg>